<?xml version="1.0" encoding="UTF-8" standalone="no"?>
<!DOCTYPE svg PUBLIC "-//W3C//DTD SVG 1.1//EN" "http://www.w3.org/Graphics/SVG/1.1/DTD/svg11.dtd">
<svg width="100%" height="100%" viewBox="0 0 1024 1024" version="1.1" xmlns="http://www.w3.org/2000/svg" xmlns:xlink="http://www.w3.org/1999/xlink" xml:space="preserve" xmlns:serif="http://www.serif.com/" style="fill-rule:evenodd;clip-rule:evenodd;stroke-linecap:round;stroke-linejoin:round;stroke-miterlimit:1.5;">
    <g id="Right" transform="matrix(0.867467,0,0,0.867467,101.889,-66.443)">
        <path d="M324.644,1123.77C324.644,1080.52 304.528,1019.93 279.675,974.183C252.674,924.478 193.91,880.302 162.64,825.538C130.167,768.668 99.321,677.672 84.835,632.96C77.003,608.785 79.975,581.437 75.726,557.269C71.614,533.884 59.179,503.75 59.339,487.948C59.443,477.672 68.426,456.346 76.687,462.46C86.094,469.422 116.132,468.157 134.934,488.881C156.495,512.646 168.905,549.139 180.507,577.624C193.355,609.169 214.651,652.88 226.702,668.769C232.03,675.792 249.372,681.072 252.816,672.956C262.055,651.181 280.992,584.102 282.136,538.12C284.226,454.12 272.885,235.652 265.359,168.952C262.984,147.912 286.654,137.602 298.698,135.722C310.743,133.842 333.73,136.724 337.624,157.671C349.302,220.49 378.646,449.706 390.472,507.945C391.674,513.867 408.13,513.127 408.581,507.101C413.424,442.48 413.585,190.723 419.527,120.222C421.464,97.227 447.038,86.838 461.191,85.866C475.343,84.895 504.063,91.59 504.441,114.394C506.144,217.348 502.325,447.016 505.476,513.859C505.757,519.831 521.966,521.267 523.343,515.448C537.213,456.83 575.481,226.146 588.698,162.148C592.915,141.729 613.469,136.116 625.714,136.956C637.959,137.797 662.589,148.751 662.171,167.191C660.631,235.144 627.145,480.584 622.894,544.769C622.548,549.989 634.703,557.15 636.663,552.3C651.821,514.795 693.539,360.826 713.843,319.741C724.295,298.592 736.751,298.64 747.495,300.659C758.239,302.679 779.449,313.446 778.308,331.859C774.979,385.562 736.45,550.155 725.999,622.784C719.105,670.698 724.356,720.023 715.605,767.632C705.567,822.241 676.375,891.487 665.773,950.437C655.657,1006.68 651.991,1064.18 651.991,1121.33C651.991,1185.1 324.644,1190.49 324.644,1123.77Z" style="fill:rgb(187,187,187);fill-opacity:0;stroke:black;stroke-width:26.13px;"/>
        <g id="Joints-White" serif:id="Joints White">
            <g id="Thumb">
                <g id="Tip" transform="matrix(1.41881,0,0,1.41881,-187.598,-43.5611)">
                    <circle cx="203" cy="391" r="26" style="fill:white;stroke:black;stroke-width:4.33px;"/>
                </g>
                <g id="Inter" transform="matrix(1.41881,0,0,1.41881,-144.945,59.0364)">
                    <circle cx="203" cy="391" r="26" style="fill:white;stroke:black;stroke-width:4.33px;"/>
                </g>
                <g id="Base" transform="matrix(1.41881,0,0,1.41881,-95.3754,162.787)">
                    <circle cx="203" cy="391" r="26" style="fill:white;stroke:black;stroke-width:4.33px;"/>
                </g>
                <g id="Knuc" transform="matrix(1.41881,0,0,1.41881,-25.0558,268.843)">
                    <circle cx="203" cy="391" r="26" style="fill:white;stroke:black;stroke-width:4.33px;"/>
                </g>
            </g>
        </g>
        <g id="Joints-Black" serif:id="Joints Black">
        </g>
    </g>
</svg>
